<?xml version="1.0" encoding="utf-8"?>
<!-- Generator: Adobe Illustrator 16.0.4, SVG Export Plug-In . SVG Version: 6.00 Build 0)  -->
<!DOCTYPE svg PUBLIC "-//W3C//DTD SVG 1.1//EN" "http://www.w3.org/Graphics/SVG/1.1/DTD/svg11.dtd">
<svg version="1.1" id="Layer_1" xmlns="http://www.w3.org/2000/svg" xmlns:xlink="http://www.w3.org/1999/xlink" x="0px" y="0px"
	 width="792px" height="612px" viewBox="0 0 792 612" enable-background="new 0 0 792 612" xml:space="preserve">
<path fill="#FBFCF4" stroke="#000000" stroke-width="0.5" stroke-miterlimit="10" d="M629.667,189
	c-79.281-79.282-218.104,21.335-225.058,26.462c-0.725-2.947-1.679-5.801-2.824-8.557l20.548-9.24
	c6.191-3.59,14.924-7.142,11.334-13.333l-9.152-10.306c-1.112-1.917-2.642-3.44-4.405-4.527l2.871-19.239
	c-2.449-6.726-9.887-10.191-16.613-7.742l-44.194,29.78c-4.843-1.28-9.927-1.965-15.173-1.965c-2.002,0-3.981,0.103-5.933,0.296
	c-3.18-5.761-8.458-10.193-14.8-12.291c0.895-2.044,1.399-4.298,1.399-6.672c0-7.452-4.893-13.759-11.639-15.892h57.112
	c0.382,0,0.754-0.086,1.118-0.219l33.41-6.556c0,0,4.333,2.667,4.333-4.333l2.333-44.333c0,0-0.666-7.333-2.666-8.667
	s-35.334-10-35.334-10v1.057c-0.942-0.541-2.03-0.854-3.194-0.854H237.113c-3.552,0-6.432,2.88-6.432,6.432v61.042
	c0,3.552,2.88,6.432,6.432,6.432h68.86c-6.747,2.133-11.64,8.439-11.64,15.892c0,4.973,2.189,9.423,5.643,12.477
	c-5.112,4.803-8.31,11.621-8.31,19.189c0,5.66,1.792,10.899,4.831,15.192c-1.132,1.831-2.162,3.731-3.091,5.688
	c-0.334-0.049-0.671-0.091-1.014-0.114l-28.393-1.934c-5.538-0.377-10.542,2.417-13.266,6.835h-6.163
	c-0.057-5.034-3.06-9.789-8.006-11.835l-78.308-32.402c-0.517-0.214-1.041-0.379-1.566-0.522c0.197-1.938,0.31-3.906,0.31-5.906
	c0-27.246-18.804-49.333-42-49.333c-11.795,0-22.448,5.719-30.077,14.916c1.445-0.158,2.916-0.249,4.411-0.249
	c18.962,0,34.333,13.133,34.333,29.333s-15.372,29.333-34.333,29.333c-4.159,0-8.145-0.632-11.833-1.79
	c6.919,16.086,21.108,27.123,37.5,27.123c7.628,0,14.775-2.401,20.94-6.576c1.357,1.857,3.212,3.386,5.494,4.33l78.308,32.401
	c3.511,1.453,7.288,1.235,10.475-0.266c2.036,1.33,4.463,2.11,7.077,2.11h47.414c1.291,0,2.535-0.195,3.711-0.546
	c3.49,21.782,18.841,39.595,39.219,46.63L327,286.333L266.333,347h76.489c1.701,10.396,5.224,19.958,10.12,28.156
	c-0.392,2.656-0.608,5.387-0.608,8.18c0,17.652,8.169,32.996,20.186,40.817c2.135,10.955,8.153,20.092,16.207,25.176
	c-0.064,0.993-0.106,1.993-0.106,3.006c0,14.634,6.787,27.349,16.761,33.808c0.081,1.448,0.215,2.874,0.404,4.272
	c-4.055,3.091-7.319,7.426-9.386,12.525L389,494.338c0,0-27.333-11.333-44-4s-28.667,12-28.667,12l48,18.666l-52.667,16.667
	l46.667,28.667c0,0,62,5.333,65.333-14.667l-1.436-5.741C436.061,544.895,447,531.747,447,515.67c0-0.41-0.013-0.817-0.027-1.225
	c5.461-5.511,9.413-13.918,10.806-23.678l32.01,19.663c0,0,58.618,5.042,61.77-13.866l-1.356-5.429
	c13.074-0.979,23.417-13.409,23.417-28.609c0-0.388-0.012-0.772-0.026-1.157c6.491-6.55,10.741-17.419,10.741-29.728
	c0-9.167-2.359-17.531-6.241-23.913c0.192-1.661,0.299-3.356,0.299-5.082c0-13.973-6.545-26.09-16.128-32.139
	c0.06-0.938,0.101-1.884,0.101-2.842c0-7.69-2.003-14.801-5.385-20.666h72.688C629.667,347,711,270.334,629.667,189z
	 M458.214,479.356c-0.541-8.26-2.897-15.753-6.482-21.646c0.204-1.757,0.316-3.55,0.316-5.375c0-0.561-0.029-1.112-0.049-1.666
	l43.462,16.9L458.214,479.356z M525.776,450.491l-6.994-8.133c0,0-25.844-10.715-41.601-3.782
	c-11.994,5.277-21.425,9.092-25.249,10.614c-0.904-13.437-7.535-24.909-16.943-30.848c0.063-0.993,0.106-1.993,0.106-3.006
	c0-8.56-2.332-16.453-6.256-22.832c12.658-10.153,21.885-26.433,25.005-45.505h31.154c2.319,12.548,9.083,23.067,18.201,29.002
	c2.019,10.357,7.708,18.996,15.322,23.803c-0.061,0.938-0.101,1.884-0.101,2.842c0,13.836,6.417,25.856,15.847,31.964
	c0.076,1.369,0.203,2.717,0.382,4.039C530.817,441.571,527.73,445.67,525.776,450.491z"/>
<path fill="#FAFAE3" stroke="#000000" stroke-width="0.5" stroke-miterlimit="10" d="M296.912,109.226
	c0,3.553-2.879,6.432-6.432,6.432h-17.346c-3.552,0-6.432-2.879-6.432-6.432V91.88c0-3.552,2.88-6.432,6.432-6.432h17.346
	c3.552,0,6.432,2.879,6.432,6.432V109.226z"/>
<circle fill="#FBFCF4" stroke="#000000" stroke-width="0.5" stroke-miterlimit="10" cx="348.699" cy="101.092" r="24.276"/>
<ellipse fill="#FBFCF4" stroke="#000000" stroke-width="0.5" stroke-miterlimit="10" cx="345.333" cy="102.309" rx="12.333" ry="12.025"/>
<ellipse fill="#FBFCF4" stroke="#000000" stroke-width="0.5" stroke-miterlimit="10" cx="281.807" cy="100.553" rx="8.914" ry="8.691"/>
<path fill="#FBFCF4" stroke="#000000" stroke-width="0.5" stroke-miterlimit="10" d="M243.728,238.645
	c-1.509,4.349-6.257,6.649-10.605,5.141l0,0c-4.347-1.509-6.649-6.257-5.141-10.604l8.961-25.822
	c1.509-4.349,6.257-6.65,10.604-5.142l0,0c4.348,1.509,6.65,6.257,5.142,10.605L243.728,238.645z"/>
<path fill="#FBFCF4" stroke="#000000" stroke-width="0.5" stroke-miterlimit="10" d="M242.35,233.186
	c-0.961,2.769-3.984,4.234-6.754,3.273l0,0c-2.768-0.961-4.234-3.984-3.273-6.753l5.706-16.444c0.961-2.769,3.984-4.235,6.753-3.274
	l0,0c2.769,0.96,4.235,3.984,3.274,6.753L242.35,233.186z"/>
<path fill="#FBFCF4" stroke="#000000" stroke-width="0.5" stroke-miterlimit="10" d="M409,224.25"/>
<path fill="#FBFCF4" stroke="#000000" stroke-width="0.5" stroke-miterlimit="10" d="M420.424,188.96l-42.791,21.855
	c-6.726,2.45-14.163-1.017-16.612-7.742l-1.853-5.087c-2.45-6.726,1.017-14.163,7.743-16.612l45.79-30.855
	c4.552-1.658,9.425-0.599,12.861,2.338c0.975-2.766,3.651-4.708,6.738-4.612c3.813,0.121,6.811,3.312,6.69,7.126l-0.713,22.661
	c-0.119,3.816-3.312,6.811-7.128,6.691L420.424,188.96z"/>
<ellipse fill="#FBFCF4" stroke="#000000" stroke-width="0.5" stroke-miterlimit="10" cx="432.667" cy="481.669" rx="22.191" ry="26.334"/>
<ellipse fill="#FBFCF4" stroke="#000000" stroke-width="0.5" stroke-miterlimit="10" cx="398.833" cy="324.502" rx="42.167" ry="52.833"/>
<circle fill="#FBFCF4" stroke="#000000" stroke-width="0.5" stroke-miterlimit="10" cx="488" cy="188" r="8.333"/>
<circle fill="#FBFCF4" stroke="#000000" stroke-width="0.5" stroke-miterlimit="10" cx="509.667" cy="180.334" r="8.333"/>
<circle fill="#FBFCF4" stroke="#000000" stroke-width="0.5" stroke-miterlimit="10" cx="469.667" cy="201.667" r="8.333"/>
<circle fill="#FBFCF4" stroke="#000000" stroke-width="0.5" stroke-miterlimit="10" cx="442.333" cy="223" r="16.333"/>
<path fill="#FBFCF4" stroke="#000000" stroke-width="0.5" stroke-miterlimit="10" d="M434.667,173.333c0,1.657-1.343,3-3,3l0,0
	c-1.657,0-3-1.343-3-3v-12.667c0-1.657,1.343-3,3-3l0,0c1.657,0,3,1.343,3,3V173.333z"/>
<path fill="#FBFCF4" stroke="#000000" stroke-width="0.5" stroke-miterlimit="10" d="M387.552,192.476
	c-3.205,2.211-7.354,1.755-9.27-1.022l0,0c-1.914-2.775-0.869-6.817,2.335-9.028l24.498-16.904c3.205-2.211,7.354-1.753,9.27,1.022
	l0,0c1.914,2.777,0.869,6.818-2.334,9.028L387.552,192.476z"/>
</svg>
